# xmcd
#
# Track frame offsets:
#	150
#	16246
#	29697
#	43430
#	57692
#	72849
#	82992
#	97042
#	111147
#	127154
#	138534
#	152470
#
# Disc length: 2241 seconds
#
# Revision: 1
# Processed by: cddbd v1.5.2PL0 Copyright (c) Steve Scherf et al.
# Submitted via: audiograbber 1.83.01
#
DISCID=ad08bf0c
DTITLE=HAMEL Dave "Pappy* (Pap and the Sideman) - Heads You Win
DYEAR=1900
DGENRE=Country
TTITLE0=I don't know why I love you
TTITLE1=The lady's in love with you
TTITLE2=I do
TTITLE3=Dreaming once more
TTITLE4=Blue Monday
TTITLE5=Heads you win (tails I love)
TTITLE6=Summer wind
TTITLE7=Don't lay your troubles on me
TTITLE8=Back here with me
TTITLE9=I don't know enough about you
TTITLE10=Is there any chance
TTITLE11=Remington ride (instrumental)
EXTD=
EXTT0=
EXTT1=
EXTT2=
EXTT3=
EXTT4=
EXTT5=
EXTT6=
EXTT7=
EXTT8=
EXTT9=
EXTT10=
EXTT11=
PLAYORDER=
